<mxfile host="app.diagrams.net" modified="2023-02-21T01:36:57.178Z" agent="5.0 (X11)" etag="XHmqLwsvSCzOj-sTG01L" version="20.8.20" type="github">
  <diagram name="Page-1" id="52a04d89-c75d-2922-d76d-85b35f80e030">
    <mxGraphModel dx="1400" dy="529" grid="1" gridSize="10" guides="1" tooltips="1" connect="1" arrows="1" fold="1" page="1" pageScale="1" pageWidth="1100" pageHeight="850" background="none" math="0" shadow="0">
      <root>
        <mxCell id="0" />
        <mxCell id="1" parent="0" />
        <mxCell id="RkeHL_fpCkVOJV3tnoVa-3" value="" style="edgeStyle=orthogonalEdgeStyle;rounded=0;orthogonalLoop=1;jettySize=auto;html=1;" edge="1" parent="1" source="17472293e6e8944d-30">
          <mxGeometry relative="1" as="geometry">
            <mxPoint x="120.00000000000011" y="200" as="targetPoint" />
          </mxGeometry>
        </mxCell>
        <mxCell id="RkeHL_fpCkVOJV3tnoVa-30" style="edgeStyle=orthogonalEdgeStyle;rounded=0;orthogonalLoop=1;jettySize=auto;html=1;entryX=0.003;entryY=0.325;entryDx=0;entryDy=0;entryPerimeter=0;" edge="1" parent="1" source="17472293e6e8944d-30" target="RkeHL_fpCkVOJV3tnoVa-28">
          <mxGeometry relative="1" as="geometry" />
        </mxCell>
        <mxCell id="17472293e6e8944d-30" value="Siswa&lt;br&gt;(Login)" style="whiteSpace=wrap;html=1;rounded=0;shadow=0;comic=0;labelBackgroundColor=none;strokeWidth=1;fontFamily=Verdana;fontSize=12;align=center;" parent="1" vertex="1">
          <mxGeometry x="40" y="40" width="160" height="50" as="geometry" />
        </mxCell>
        <mxCell id="RkeHL_fpCkVOJV3tnoVa-8" value="" style="edgeStyle=orthogonalEdgeStyle;rounded=0;orthogonalLoop=1;jettySize=auto;html=1;entryX=0.5;entryY=0;entryDx=0;entryDy=0;" edge="1" parent="1" source="RkeHL_fpCkVOJV3tnoVa-4" target="RkeHL_fpCkVOJV3tnoVa-7">
          <mxGeometry relative="1" as="geometry" />
        </mxCell>
        <mxCell id="RkeHL_fpCkVOJV3tnoVa-4" value="Lihat Riwayat Pembayaran" style="whiteSpace=wrap;html=1;rounded=0;shadow=0;comic=0;labelBackgroundColor=none;strokeWidth=1;fontFamily=Verdana;fontSize=12;align=center;" vertex="1" parent="1">
          <mxGeometry x="40" y="200" width="160" height="70" as="geometry" />
        </mxCell>
        <mxCell id="RkeHL_fpCkVOJV3tnoVa-7" value="Pembayaran" style="whiteSpace=wrap;html=1;rounded=0;shadow=0;comic=0;labelBackgroundColor=none;strokeWidth=1;fontFamily=Verdana;fontSize=12;align=center;" vertex="1" parent="1">
          <mxGeometry x="40" y="360" width="160" height="50" as="geometry" />
        </mxCell>
        <mxCell id="RkeHL_fpCkVOJV3tnoVa-24" style="edgeStyle=orthogonalEdgeStyle;rounded=0;orthogonalLoop=1;jettySize=auto;html=1;entryX=1;entryY=0.5;entryDx=0;entryDy=0;" edge="1" parent="1" source="RkeHL_fpCkVOJV3tnoVa-10" target="RkeHL_fpCkVOJV3tnoVa-7">
          <mxGeometry relative="1" as="geometry" />
        </mxCell>
        <mxCell id="RkeHL_fpCkVOJV3tnoVa-10" value="&lt;div&gt;Entri Riwayat Pembayaran&lt;/div&gt;&lt;div&gt;(Petugas Login)&lt;br&gt;&lt;/div&gt;" style="whiteSpace=wrap;html=1;rounded=0;shadow=0;comic=0;labelBackgroundColor=none;strokeWidth=1;fontFamily=Verdana;fontSize=12;align=center;" vertex="1" parent="1">
          <mxGeometry x="280" y="360" width="200" height="50" as="geometry" />
        </mxCell>
        <mxCell id="RkeHL_fpCkVOJV3tnoVa-27" style="edgeStyle=orthogonalEdgeStyle;rounded=0;orthogonalLoop=1;jettySize=auto;html=1;" edge="1" parent="1" source="RkeHL_fpCkVOJV3tnoVa-12" target="RkeHL_fpCkVOJV3tnoVa-10">
          <mxGeometry relative="1" as="geometry" />
        </mxCell>
        <mxCell id="RkeHL_fpCkVOJV3tnoVa-12" value="&lt;div&gt;Petugas&lt;/div&gt;&lt;div&gt;(Login/Register)&lt;br&gt;&lt;/div&gt;" style="whiteSpace=wrap;html=1;rounded=0;shadow=0;comic=0;labelBackgroundColor=none;strokeWidth=1;fontFamily=Verdana;fontSize=12;align=center;" vertex="1" parent="1">
          <mxGeometry x="280" y="210" width="200" height="50" as="geometry" />
        </mxCell>
        <mxCell id="RkeHL_fpCkVOJV3tnoVa-23" value="Melihat semua riwayat pembayaran" style="edgeStyle=orthogonalEdgeStyle;rounded=0;orthogonalLoop=1;jettySize=auto;html=1;entryX=0.5;entryY=1;entryDx=0;entryDy=0;" edge="1" parent="1" source="RkeHL_fpCkVOJV3tnoVa-21" target="RkeHL_fpCkVOJV3tnoVa-7">
          <mxGeometry relative="1" as="geometry" />
        </mxCell>
        <mxCell id="RkeHL_fpCkVOJV3tnoVa-21" value="Admin/Superadmin" style="whiteSpace=wrap;html=1;rounded=0;shadow=0;comic=0;labelBackgroundColor=none;strokeWidth=1;fontFamily=Verdana;fontSize=12;align=center;" vertex="1" parent="1">
          <mxGeometry x="20" y="480" width="200" height="70" as="geometry" />
        </mxCell>
        <mxCell id="RkeHL_fpCkVOJV3tnoVa-29" style="edgeStyle=orthogonalEdgeStyle;rounded=0;orthogonalLoop=1;jettySize=auto;html=1;entryX=0.5;entryY=0;entryDx=0;entryDy=0;" edge="1" parent="1" source="RkeHL_fpCkVOJV3tnoVa-28" target="RkeHL_fpCkVOJV3tnoVa-12">
          <mxGeometry relative="1" as="geometry" />
        </mxCell>
        <mxCell id="RkeHL_fpCkVOJV3tnoVa-28" value="Konfirmasi Pembayaran Eksternal" style="whiteSpace=wrap;html=1;aspect=fixed;" vertex="1" parent="1">
          <mxGeometry x="310" y="20" width="140" height="140" as="geometry" />
        </mxCell>
      </root>
    </mxGraphModel>
  </diagram>
</mxfile>
